<svg xmlns="http://www.w3.org/2000/svg" width="1024" height="733"><ellipse opacity=".2" cx="536.257" cy="679.271" rx="376.742" ry="15.082"/><path fill="#155288" d="M516.93 525.944s16.71-46.306-30.197-43.329c-46.906 2.979-193.998 16.43-193.998 16.43v26.803l224.195.096z"/><path fill="#226BAF" d="M292.167 499.535l-76.688-319.224h166.778s32.759 39.681 8.936 82.864c0 0 42.68 68.422 8.681 116.073 0 0 34.977 57.575 13.148 109.218l-120.855 11.069z"/><path fill="#155288" d="M301.879 498.678s9.645-80.789-21.625-110.57c0 0 10.422-93.813-23.826-125.084 0 0 5.956-72.222-40.95-83.016l76.688 319.561 9.713-.891z"/><path fill="#155288" d="M386.351 263.023s-63.36-7.073-126.981 0c0 0 91.988 7.446 126.981 0zM396.775 378.801s-71.477-4.096-113.544 8.189c0 0 77.806-.371 113.544-8.189z"/><path fill="#155288" d="M358.431 263.106s7.818-23.163-3.722-44.755c0 0 6.328 34.042-1.49 44.755 0 0 11.54 23.37 10.424 40.495.001.001 6.328-14.725-5.212-40.495zM308.73 263.172s5.82-23.744-7.514-44.277c0 0 9.201 33.381 2.321 44.72 0 0 13.488 22.304 13.831 39.462 0 .001 5.053-15.209-8.638-39.905zM365.876 380s11.038-23.164-.502-44.755c0 0 3.109 34.043-4.709 44.755 0 0 11.54 23.37 10.424 40.494 0 0 6.328-14.724-5.213-40.494zM323.622 380.065s7.992-23.744-5.342-44.277c0 0 7.028 33.382.149 44.721 0 0 13.486 22.304 13.829 39.462 0 0 5.055-15.21-8.636-39.906z"/><path fill="#CAD8D7" d="M391.211 526.309v122.429h-19.378l-6.701-122.429z"/><path fill="#98A3A2" d="M474.929 648.11l-175.096-10.086v17.811h174.826z"/><circle fill="#2A3836" cx="459.689" cy="666.566" r="12.284"/><circle fill="#2A3836" cx="315.247" cy="666.566" r="12.285"/><circle fill="#2A3836" cx="365.131" cy="666.566" r="12.285"/><path fill="#98A3A2" d="M391.211 526.309v26.342l-23.523 19.833-2.556-46.175z"/><g><path fill="#373534" d="M643.832 343.333h92.376v23.841h-92.376zM736.208 365.142h56.946v2.032h-56.946zM736.208 343.333h56.946v2.033h-56.946z"/><path fill="#E9F3FF" d="M736.208 345.366h53.194v19.776h-53.194zM648.12 349.443h55.772v9.946H648.12z"/></g><g><path fill="#F2C406" d="M633.302 319.491h92.376v23.842h-92.376zM725.678 341.299h56.947v2.034h-56.947zM725.678 319.491h56.947v2.032h-56.947z"/><path fill="#E9F3FF" d="M725.678 321.523h53.192v19.776h-53.192zM637.591 325.602h55.771v9.944h-55.771z"/></g><g><path fill="#0194BF" d="M655.385 295.649h92.377v23.841h-92.377zM747.762 317.458h56.947v2.033h-56.947zM747.762 295.649h56.947v2.032h-56.947z"/><path fill="#E9F3FF" d="M747.762 297.682h53.194v19.776h-53.194zM659.674 301.759h55.772v9.946h-55.772z"/></g><g><path fill="gold" d="M584.784 364.541h4.638c9.638 0 17.481-9.173 17.481-20.449 0-11.278-7.844-20.453-17.481-20.453h-4.638v5.647h4.638c6.525 0 11.832 6.642 11.832 14.806 0 8.162-5.307 14.801-11.832 14.801h-4.638v5.648z"/></g><path fill="#F2C406" d="M554.333 321.523h35.392v45.534h-35.392z"/><g><path fill="#CBDAED" d="M462.163 218.233s19.764 21.212 47.478 70.49c39.923 70.987-4.465 70.866-4.465 70.866s-26.396-17.381-53.441-79.225c-8.993-20.556 7.971-57.705 10.428-62.131z"/><path fill="#503E3E" d="M524.538 636.248s-3.919 20.475-.962 34.669h94.828s3.648-21.041-37.753-20.992l-26.56-17.953-29.553 4.276z"/><path fill="#2A2221" d="M523.399 678.901h31.413l.389-5.892s13.236 5.161 31.297 5.161c8.779 0 31.829.148 31.829.148v-7.402h-94.928v7.985z"/><path fill="#685C5C" d="M583.325 649.663s1.398 14.671 34.259 13.975c0 0-4.526-13.357-34.259-13.975z"/><path fill="#2A2221" d="M554.333 670.917s-.922-24.105-31.217-24.252c0 0-1.608 16.268.757 24.252h30.46z"/><path fill="#0F1417" d="M467.241 425.563s114.79 2.664 116.564 35.488c1.774 32.825-15.97 176.974-15.97 176.974s-19.813 10.22-47.02-1.987l4.782-131.825s-.347-12.109-13.95-13.885c-13.604-1.774-129.822 16.355-117.254-61.316l72.848-3.449z"/><path fill="#503E3E" d="M442.918 636.248s-3.919 20.475-.961 34.669h95.223s3.253-21.041-38.147-20.992l-26.56-17.953-29.555 4.276z"/><path fill="#2A2221" d="M441.78 678.901h31.414l.388-5.892s13.236 5.161 31.297 5.161c8.78 0 31.829.148 31.829.148v-7.402H441.78v7.985z"/><path fill="#685C5C" d="M501.706 649.663s1.398 14.671 34.258 13.975c0 0-4.526-13.357-34.258-13.975z"/><path fill="#2A2221" d="M472.713 670.917s-.922-24.105-31.217-24.252c0 0-1.608 16.268.757 24.252h30.46z"/><path fill="#222323" d="M337.605 429.011s-8.678 57.693 13.079 60.532l66.882 5.316 20.743 151.823s17.566 9.546 50.392-6.423L476.409 483.65s-6.872-45.02-68.851-49.157l-69.953-5.482z"/><path fill="#D4D6D5" d="M364.021 205.064c17.947-3.911 39.954-6.208 62.721-2.627-.144 14.856-.576 79.012-15.191 130.005-.001.001-41.029-93.17-47.53-127.378z"/><path fill="#0092BD" d="M413.263 223.028l-8.153 14.39 19.897 88.052-13.491 17.475-13.977-12.687-1.35-92.186-7.083-11.369 10.083-14.657z"/><path fill="#FAA284" d="M412.443 195.461l.603 21.949-36.36 1-.785-28.554c15.279 6.929 30.349 6.351 36.542 5.605z"/><path fill="#EF8D72" d="M375.9 190.856l-.604-21.996 36.36-1 .787 28.601c-6.193.746-21.263 1.324-36.543-5.605z"/><path fill="#DFECFE" d="M321.596 219.242s20.719-11.311 45.942-16.808c6.501 34.207 44.012 130.009 44.012 130.009 14.616-50.993 11.57-116.466 11.713-131.322 11.479 1.807 27.454 10.012 38.899 17.112 0 0 13.898 50.786 7.111 208.407 0 0-49.44 18.052-131.668 2.37 0 0-1.708-89.314-4.994-142.735 0 0-7.634-39.901-11.015-67.033z"/><path fill="#F0F2F1" d="M412.505 194.205s-1.681 12.686-13.316 17.841c0 0-21.663-3.707-23.19-17.869l-10.928 10.664s6.693 20.273 23.48 26.534l10.493-15.999 14.261 13.197s13.188-15.785 12.058-26.102l-12.858-8.266z"/><path fill="#E9F3FF" d="M434.458 249.52l6.349 5.767s-16.97 66.754-29.167 90.954c0 0-35.204-58.971-46.289-84.74l5.299-8.408-11.622-3.571s-4.658-24.392-3.353-44.021a164.343 164.343 0 0 1 11.864-3.067c6.501 34.207 44.012 130.009 44.012 130.009 14.616-50.993 11.57-116.466 11.713-131.322 3.372.53 7.223 2.049 11.041 3.011l7.962 37.809-7.809 7.579z"/><g><path fill="#3B221D" d="M367.183 85.379s35.028 16.674 43.464 15.757c8.438-.916 35.458-13.855 35.458-13.855 3.474 16.224-5.047 30.293-5.047 30.293l-76.127 17.58-12.836 3.377c-3.479-13.735-6.432-27.821-6.406-35.907 15.686-3.567 21.494-17.245 21.494-17.245z"/><path fill="#502F26" d="M355.326 76.134c6.844-27.575 53.904-29.458 53.904-29.458 24.733-15.04 15.448 4.2 15.448 4.2 41.38-14.807 21.67 22.458 21.67 22.458 15.319-.539-.243 13.946-.243 13.946s-27.019 12.94-35.458 13.855c-8.437.917-42.98-14.302-42.98-14.302s-6.292 12.223-21.979 15.79c.082-24.547 9.638-26.489 9.638-26.489z"/><path fill="#FAA284" d="M355.349 128.551l5.714 4.819c1.201-2.854 2.177-5.833 2.974-8.836 4.618-17.379 3.146-39.156 3.146-39.156 39.924 15.49 74.06 4.287 74.06 4.287-1.908 19.801 4.647 63.445-10.527 85.839-4.522 6.673-10.237 12.273-19.826 13.775-41.771 6.541-52.506-34.326-52.506-34.326s-13.093 3.488-15.761-15.809c-2.212-15.983 12.726-10.593 12.726-10.593z"/><path fill="#EF8D72" d="M373.092 92.474s-3.351 18.438-8.44 29.573c3.861-16.587 2.532-36.668 2.532-36.668 39.924 15.49 74.06 4.287 74.06 4.287-.208 2.16-.29 4.628-.298 7.314-15.528 2.156-43.339 4.064-67.854-4.506z"/><path fill="#502F26" d="M418.145 133.591c.035 3.592 2.215 6.336 4.873 6.121 2.656-.213 4.781-3.298 4.746-6.894-.037-3.593-2.218-6.336-4.874-6.123-2.657.213-4.783 3.3-4.745 6.896zM381.632 132.528c.035 3.594 2.217 6.336 4.875 6.123 2.656-.213 4.782-3.3 4.746-6.893-.037-3.595-2.22-6.336-4.874-6.124-2.656.213-4.783 3.301-4.747 6.894z"/><path fill="#DB7C65" d="M405.198 153.986c8.078 3.264 12.431-.537 12.755-4.358.213-2.488-1.198-4.697-3.589-5.633-4.921-1.921-8.39-9.49-8.425-9.568-.022 1.74 1.733 8.281 7.977 11.912 1.35.786 2.19 1.614 2.087 2.844-.181 2.142-3.276 5.34-10.805 4.803z"/><path fill="#502F26" d="M434.558 115.049l.354-2.432c-.527-.042-8.865-2.311-18.646-1.487l-.086 3.814c8.012-1.185 18.25.096 18.378.105zM375.271 116.323c6.538-2.535 18.655-3.006 18.77-3.032l-.797-3.478c-.477.098-11.466.48-18.79 4.394l.817 2.116z"/><path fill="#674434" d="M442.891 47.536S425.473 64.651 384.8 64.61c0 0 26.566 18.528 62.753 6.179.001-.001 9.229-21.961-4.662-23.253z"/><path fill="#EF8D72" d="M361.559 150.14c3.549 10.35 16.782 35.856 45.325 34.303 15.446-.84 23.285-11.031 28.433-18.146-1.22 3.348-2.731 6.448-4.601 9.208-4.522 6.673-10.237 12.273-19.826 13.775-41.771 6.541-52.506-34.326-52.506-34.326s-10.022 2.799-14.458-9.968c7.796 12.952 17.633 5.154 17.633 5.154z"/><path fill="#823321" d="M391.156 159.602s15.202 3.105 29.335 0c0 0-2.502 13.002-14.667 12.975-11.468-.024-14.535-10.461-14.668-12.975z"/><path fill="#FFF" d="M406.148 165.813c9.35 0 12.095-3.878 13.273-5.99-10.972 2.166-19.816.872-27.52-.082.833 2.346 5.432 6.072 14.247 6.072z"/></g><g><path fill="#E9F3FF" d="M465.245 312.497s6.259-10.277 23.568-5.593c34.94 9.451 39.068 21.521 36.829 36.042-3.27 21.225-25.169 28.1-57.761-8.425-11.161-12.506-2.636-22.024-2.636-22.024z"/><ellipse transform="rotate(170.54 481.093 323.666)" fill="#F0F2F1" cx="481.092" cy="323.681" rx="17.707" ry="16.066"/><path fill="#211717" d="M449.128 274.891l-6.307 59.997 2.636 8.863 4.423-8.12 6.308-59.997z"/><path fill="#FAA284" d="M452.675 335.106l-5.48-8.472s-1.851 1.075-5.898-1.914l1.72-4.045s-2.956-2.904-1.907-5.815c1.046-2.913 9.876-16.548 17.532-18.828 7.655-2.28 26.851 17.799 26.851 17.799s7.872 11.888-2.606 17.662c-10.478 5.772-15.792.983-15.792.983s-9.169 10.399-14.42 2.63z"/></g><g><path fill="#CBDAED" d="M322.12 219.739s-18.747-1.994-47.58 126.256c0 0-.591 20.656 18.112 21.445 18.706.788 71.284.788 71.284.788s12.97-13.888 1.04-34.542l-38.892-6.492 9.236-30.301c0-.001 1.995-50.425-13.2-77.154z"/><path fill="#F0F2F1" d="M360.621 338.229s-8.454 15.968-1.356 28.389h13.751s9.26-12.128 1.747-26.989l-14.142-1.4z"/><path fill="#FAA284" d="M370.812 344.879s29.157-2.728 35.618.986c6.462 3.711 28.4 15.688 26.527 20.698 0 0-2.343 2.627-9.018 1.052-6.674-1.577-14.035.398-25.513-2.284l-5.595-2.027s-13.924 6.981-22.051-1.451c-8.128-8.432.032-16.974.032-16.974z"/></g><path fill="#DFECFE" d="M337.605 411.559s-12.94 46.576 3.916 78.958c0 0 31.292 2.71 47.585-11.065 16.291-13.775 25.606-48.079 65.981-28.785l-15.534-15.25s52.798 14.661 59.205 18.283c0 0 2.01-18.771 19.753-24.688 0 0-36.374-9.468-51.9-11.686-15.525-2.219-129.006-5.767-129.006-5.767z"/><path fill="#DDD9DA" d="M389.437 363.956h126.866v3.549H389.437z"/></g><g><g fill="#9B9B9B"><path d="M334.207 678.464h10.126l-64.682-294.993-10.126 2.237z"/><path d="M214.427 678.464h-10.123l64.678-294.993 10.129 2.237z"/></g><path fill="#9B9B9B" d="M234.771 539.498h174.783v-8.531H236.641z"/><g fill="#DDD9DA"><path d="M436.833 678.464h10.126l-64.68-294.993-10.126 2.237z"/><path d="M317.055 678.464H306.93l64.678-294.993 10.13 2.237z"/></g></g><path fill="#8BACCD" d="M374.814 366.956h511.172v19.163H374.814z"/><path fill="#759DC3" d="M204.304 366.956h170.51v19.163h-170.51z"/><path fill="#DDD9DA" d="M739.87 386.135h129.526v292.766H739.87z"/><path fill="#BAB9B9" d="M630.747 386.135H739.87v292.766H630.747z"/><path fill="#9B9B9B" d="M739.982 386.135H630.747v93.316z"/><g fill="#373534"><path d="M570.797 352.138l2.257.827c-.446.604-.801 1.042-1.063 1.313-1.331 1.339-2.954 2.008-4.87 2.008-1.898 0-3.507-.658-4.823-1.975-1.317-1.317-1.976-2.877-1.976-4.68 0-1.802.658-3.36 1.976-4.672 1.316-1.313 2.925-1.969 4.823-1.969 1.916 0 3.522.648 4.817 1.943.297.297.669.748 1.115 1.352l-2.257.84c-.315-.394-.53-.652-.644-.774-.849-.84-1.859-1.26-3.032-1.26s-2.191.436-3.059 1.306c-.866.871-1.299 1.949-1.299 3.235 0 1.278.433 2.352 1.299 3.223.867.871 1.886 1.306 3.059 1.306s2.201-.441 3.085-1.326c.079-.08.276-.312.592-.697zM574.97 337.411h1.051v7.757c.875-.849 1.934-1.273 3.176-1.273 1.339 0 2.431.422 3.275 1.267.844.845 1.279 1.906 1.306 3.183v7.626h-1.05v-7.521c0-.971-.351-1.798-1.05-2.48-.7-.683-1.527-1.024-2.481-1.024-.962 0-1.789.337-2.48 1.011a3.113 3.113 0 0 0-.695.958v9.057h-1.051v-18.561z"/></g></svg>