<svg xmlns="http://www.w3.org/2000/svg" width="96" height="96"><g fill-rule="evenodd" clip-rule="evenodd"><path fill="#184975" d="M55.366 64.431c1.866 1.556 3.844 3.496 6.76 3.689 3.001.2 4.908-1.81 7.009-3.605 1.714 1.429 3.771 1.938 5.844 2.515 3.527.979 5.856 3.414 7.247 6.733 1.25 2.986 1.936 6.125 2.146 9.353.135 2.046-.1 2.606-2.044 3.281-2.422.84-4.911 1.6-7.434 2.019-9.036 1.506-18.084 1.439-27.081-.349-1.924-.382-3.791-1.073-5.657-1.696-1.436-.48-2.091-1.489-1.997-3.077.211-3.579.875-7.054 2.445-10.284 1.737-3.576 4.632-5.635 8.557-6.476 1.433-.307 2.713-1.332 4.205-2.103z"/><path fill="#184975" d="M72.188 48.197c-.073.529-.169 1.057-.209 1.589-.018.243.014.532.13.74 1.277 2.308.787 5.143-1.178 6.919-.276.248-.44.654-.581 1.017-.833 2.163-2.013 4.088-3.817 5.578-2.677 2.208-5.733 2.248-8.462.105-1.932-1.518-3.122-3.553-4.015-5.8-.15-.38-.389-.777-.698-1.032-1.58-1.291-2.21-4.646-1.226-6.478.215-.399.342-.932.287-1.377-.262-2.127-.191-4.274 1.138-5.979 2.297-2.95 5.35-4.675 9.217-4.556.865.027 1.739.177 2.581.382 4.332 1.059 6.797 4.31 6.833 8.892zM21.174 16.725v3.132H14.82V74.63h25.341l-.904 3.201H25.832c-3.487 0-6.973-.003-10.459-.004-2.591-.001-3.76-1.168-3.768-3.81-.012-4.693-.007-9.387-.007-14.081l.001-39.526c0-.402-.015-.806.019-1.206.123-1.471.965-2.415 2.424-2.461 2.34-.073 4.683-.018 7.132-.018z"/><path fill="#184975" d="M22.922 22.209v-7.906h7.528c.173-2.015.867-3.699 2.499-4.88 1.044-.756 2.203-1.088 3.494-1.021 2.884.152 4.753 2.147 5.383 5.851h8.278v7.956H22.922zm13.186-7.517a1.644 1.644 0 0 0 1.649-1.646 1.624 1.624 0 0 0-1.669-1.616 1.614 1.614 0 0 0-1.593 1.59 1.625 1.625 0 0 0 1.613 1.672zM58.326 19.875h-6.415v-3.078c2.278 0 4.555-.155 6.798.047 1.938.174 2.742 1.357 2.742 3.302.002 5.326 0 10.652 0 15.979v.984l-3.125.846v-18.08z"/><path fill="#F5A123" d="M34.194 33.6h15.939v3.14H34.194V33.6zM50.17 44.923v3.1H34.193v-3.1H50.17zM34.154 58.469v-3.098h15.977v3.098H34.154z"/><path fill="#F28400" d="M23.988 37.794l-4.415-4.427 2.436-2.147 1.927 2.277 5.778-5.83 2.172 2.284-7.898 7.843zM22.843 54.173l2.008 2.25c1.937-1.95 3.789-3.816 5.636-5.679l2.247 2.31-7.767 7.74-4.418-4.478 2.294-2.143zM24.599 49.3l-4.411-4.377 2.364-2.338 2.124 2.598 5.716-5.858c.754.794 1.44 1.519 2.044 2.154-2.586 2.579-5.224 5.212-7.837 7.821z"/></g></svg>