<svg xmlns="http://www.w3.org/2000/svg" width="96" height="96"><g fill-rule="evenodd" clip-rule="evenodd"><path fill="#184975" d="M21.604 48.035c1.995 1.674 3.888 3.519 6.678 3.699 2.863.184 4.677-1.751 6.684-3.447 1.608 1.365 3.542 1.851 5.495 2.379 3.189.863 5.399 2.987 6.757 5.951 1.412 3.083 2.057 6.364 2.316 9.737.104 1.352-.414 2.302-1.655 2.681-2.558.78-5.114 1.654-7.737 2.109-7.395 1.282-14.847 1.317-22.261.186-2.853-.437-5.671-1.234-8.432-2.102-1.978-.62-2.229-1.168-2.127-3.224.178-3.543.879-6.988 2.579-10.134 1.682-3.112 4.333-4.938 7.825-5.617.845-.162 1.64-.662 2.411-1.092.523-.291.963-.731 1.467-1.126z"/><path fill="#184975" d="M37.868 32.71c-.07.505-.163 1.008-.2 1.515-.017.234.012.509.123.709 1.22 2.207.752 4.907-1.122 6.604-.264.238-.421.624-.554.97-.795 2.065-1.921 3.902-3.645 5.325-2.556 2.11-5.473 2.148-8.078.104-1.818-1.426-2.938-3.342-3.805-5.442a3.268 3.268 0 0 0-.849-1.191c-1.378-1.188-1.915-4.389-1.018-6.072.204-.383.327-.889.275-1.313-.249-2.032-.182-4.081 1.086-5.708 2.193-2.816 5.105-4.464 8.799-4.349.825.025 1.66.167 2.463.365 4.14 1.016 6.491 4.114 6.525 8.483z"/><path fill="#F5A123" d="M54.968 47.512v-4.497h33.695v4.497H54.968z"/><path fill="#F28400" d="M88.696 53.023v4.495H54.967v-4.495h33.729z"/><path fill="#F5A123" d="M76.421 33.247v4.465H54.987v-4.465h21.434zM54.968 67.492v-4.499h21.4v4.499h-21.4z"/></g></svg>