<svg xmlns="http://www.w3.org/2000/svg" width="96" height="96"><g fill-rule="evenodd" clip-rule="evenodd"><path fill="#184975" d="M77.916 68.271H59.749c-1.058 0-2.117.031-3.173-.018-.37-.016-.826-.141-1.056-.391-.12-.131.099-.68.278-.965 3.553-5.613.326-13.09-6.203-14.139-3.888-.623-7.134.711-9.313 4.037-2.17 3.313-2.088 6.752-.051 10.152.195.326.275.721.408 1.084-.385.08-.77.225-1.155.227-6.765.014-13.53.01-20.296.01h-1.116V19.13h59.843l.001 49.141zm-5.293-26.119H23.394v3.006h49.229v-3.006zm-8.469-9.232H31.863v2.999h32.291V32.92z"/><path fill="#184975" d="M56.607 69.893h22.9V17.549H16.466v52.289H39.55c-.633 1.053-1.144 1.961-1.727 2.82-.117.172-.509.219-.775.221-6.831.01-13.661.021-20.491.002-1.941-.006-3.168-1.275-3.168-3.227-.006-17.35-.006-34.697.002-52.046.001-1.988 1.293-3.164 3.424-3.165 12.122-.004 24.243-.004 36.365-.004 8.625 0 17.253.002 25.878.001 2.381 0 3.551 1.15 3.551 3.526.002 17.06.004 34.119.002 51.178 0 2.646-1.094 3.744-3.727 3.744-6.51.004-13.02-.014-19.531.021-.825.004-1.298-.244-1.623-.992-.287-.659-.695-1.267-1.123-2.024z"/><path fill="#F5A123" d="M35.654 77.186c.811-1.297 1.634-2.586 2.428-3.893 1.021-1.68 2.018-3.373 3.085-5.16 1.889 2.117 4.192 3.256 6.948 3.24 2.769-.016 5.065-1.17 6.929-3.379l5.29 9.387c-1.69-.293-3.381-.584-5.14-.887l-1.816 5.035-5.316-9.004-5.329 9.035-1.737-5.113-5.342.922v-.183z"/><path fill="#F28400" d="M48.205 54.33c4.165.102 7.375 3.471 7.265 7.625-.105 4.014-3.521 7.266-7.55 7.188-4.141-.082-7.389-3.547-7.265-7.75.116-3.946 3.555-7.164 7.55-7.063z"/></g></svg>